<svg xml:space="preserve" style="enable-background:new 0 0 1024 1024;" viewBox="0 0 1024 1024" y="0px" x="0px" xmlns:xlink="http://www.w3.org/1999/xlink" xmlns="http://www.w3.org/2000/svg" id="图层_1" version="1.1">
<style type="text/css">
	.st0{fill:#333333;}
	.st1{fill:none;stroke:#333333;stroke-width:12.4009;stroke-linecap:round;stroke-linejoin:round;stroke-miterlimit:10;}
	.st2{fill:#FF5F6B;stroke:#333333;stroke-width:12.4009;stroke-linecap:round;stroke-linejoin:round;stroke-miterlimit:10;}
</style>
<g>
	<g>
		<defs>
			<polygon points="374.91,280.6 504.32,53.02 654.14,283.39" id="XMLID_144_"></polygon>
		</defs>
		<use style="overflow:visible;fill:#FF5F6B;" xlink:href="#XMLID_144_"></use>
		<clipPath id="XMLID_2_">
			<use style="overflow:visible;" xlink:href="#XMLID_144_"></use>
		</clipPath>
		
			<use style="overflow:visible;fill:none;stroke:#333333;stroke-width:12.4009;stroke-linecap:round;stroke-linejoin:round;stroke-miterlimit:10;" xlink:href="#XMLID_144_"></use>
	</g>
	<g>
		<defs>
			<path d="M629.87,512.33c32.5-29.22,52.73-70.35,52.73-115.91c0-88.67-76.64-160.55-171.18-160.55
				s-171.18,71.88-171.18,160.55c0,45.75,20.4,87.03,53.14,116.28C306.59,556.22,247,646.01,247,749.72
				c0,146.36,118.64,251.27,265,251.27c146.36,0,265-104.92,265-251.27C777,645.71,717.07,555.71,629.87,512.33z" id="XMLID_103_"></path>
		</defs>
		<use style="overflow:visible;fill:#FFFFFF;" xlink:href="#XMLID_103_"></use>
		<clipPath id="XMLID_3_">
			<use style="overflow:visible;" xlink:href="#XMLID_103_"></use>
		</clipPath>
		
			<use style="overflow:visible;fill:none;stroke:#333333;stroke-width:12.4009;stroke-linecap:round;stroke-linejoin:round;stroke-miterlimit:10;" xlink:href="#XMLID_103_"></use>
	</g>
	<g>
		<g>
			<circle r="13.93" cy="354.44" cx="560.55" class="st0"></circle>
			<circle r="13.93" cy="354.44" cx="463.45" class="st0"></circle>
		</g>
		<path d="M547.66,429.47c0,0-35.86,29.48-71.31,0" class="st1"></path>
	</g>
	<path d="M585.23,776.57L585.23,776.57c-26.47,0-47.93-21.46-47.93-47.93V560.44h95.87v168.19
		C633.16,755.11,611.7,776.57,585.23,776.57z" class="st2"></path>
	<g>
		<defs>
			<path d="M652.27,313.01c4.34,0,8.67-1.88,11.8-5.56c5.83-6.86,5.26-17.41-1.25-23.55
				c-1.29-1.21-32.09-29.85-84.89-44.19c-30.86-8.38-62.99-10.21-95.5-5.43c-40.22,5.91-81.04,21.99-121.32,47.8
				c-7.47,4.78-9.84,15.04-5.3,22.9c4.54,7.86,14.28,10.36,21.75,5.57c65.51-41.97,129.76-55.08,190.96-38.97
				c45.84,12.06,72.96,36.94,73.23,37.19C644.76,311.61,648.52,313.01,652.27,313.01z" id="XMLID_145_"></path>
		</defs>
		<use style="overflow:visible;fill:#FFFFFF;" xlink:href="#XMLID_145_"></use>
		<clipPath id="XMLID_4_">
			<use style="overflow:visible;" xlink:href="#XMLID_145_"></use>
		</clipPath>
		
			<use style="overflow:visible;fill:none;stroke:#333333;stroke-width:12.4009;stroke-linecap:round;stroke-linejoin:round;stroke-miterlimit:10;" xlink:href="#XMLID_145_"></use>
	</g>
	<g>
		<defs>
			<path d="M662.38,472.19c0,0-147.18,78.59-301.91,0c0,0-28.9,11.82-40.08,51.33c-6.33,22.35,4.56,46,25.64,55.74
				c76.98,35.56,264.81,45.45,334.03-7.82c12.78-9.84,19.82-25.33,18.71-41.42C697.44,510.5,690.29,483.28,662.38,472.19z" id="XMLID_104_"></path>
		</defs>
		<use style="overflow:visible;fill:#FF5F6B;" xlink:href="#XMLID_104_"></use>
		<clipPath id="XMLID_5_">
			<use style="overflow:visible;" xlink:href="#XMLID_104_"></use>
		</clipPath>
		
			<use style="overflow:visible;fill:none;stroke:#333333;stroke-width:12.4009;stroke-linecap:round;stroke-linejoin:round;stroke-miterlimit:10;" xlink:href="#XMLID_104_"></use>
	</g>
	<g>
		<defs>
			<circle r="34.9" cy="57.91" cx="506.93" id="XMLID_146_"></circle>
		</defs>
		<use style="overflow:visible;fill:#FFFFFF;" xlink:href="#XMLID_146_"></use>
		<clipPath id="XMLID_6_">
			<use style="overflow:visible;" xlink:href="#XMLID_146_"></use>
		</clipPath>
		
			<use style="overflow:visible;fill:none;stroke:#333333;stroke-width:12.4009;stroke-linecap:round;stroke-linejoin:round;stroke-miterlimit:10;" xlink:href="#XMLID_146_"></use>
	</g>
	<g>
		<defs>
			<circle r="42.63" cy="819.29" cx="585.23" id="XMLID_10_"></circle>
		</defs>
		<use style="overflow:visible;fill:#FFFFFF;" xlink:href="#XMLID_10_"></use>
		<clipPath id="XMLID_7_">
			<use style="overflow:visible;" xlink:href="#XMLID_10_"></use>
		</clipPath>
		
			<use style="overflow:visible;fill:none;stroke:#333333;stroke-width:12.4009;stroke-linecap:round;stroke-linejoin:round;stroke-miterlimit:10;" xlink:href="#XMLID_10_"></use>
	</g>
</g>
</svg>
